<?xml version="1.0" standalone="no"?>
<!DOCTYPE svg PUBLIC "-//W3C//DTD SVG 20010904//EN"
 "http://www.w3.org/TR/2001/REC-SVG-20010904/DTD/svg10.dtd">
<svg version="1.0" xmlns="http://www.w3.org/2000/svg"
 width="700.000000pt" height="700.000000pt" viewBox="0 0 700.000000 700.000000"
 preserveAspectRatio="xMidYMid meet">
<metadata>
Created by potrace 1.11, written by Peter Selinger 2001-2013
</metadata>
<g transform="translate(0.000000,700.000000) scale(0.100000,-0.100000)"
fill="#000000" stroke="none">
<path d="M5551 6475 c-5 -22 -12 -53 -15 -70 -3 -16 -8 -41 -11 -55 -3 -14 -8
-36 -11 -50 -3 -14 -7 -33 -10 -42 -3 -10 -8 -30 -10 -45 -3 -16 -30 -143 -60
-283 -30 -140 -56 -264 -58 -275 -3 -11 -12 -54 -21 -95 -9 -41 -19 -86 -21
-100 -3 -14 -10 -45 -15 -70 -6 -25 -13 -56 -15 -70 -3 -14 -35 -162 -71 -330
-36 -168 -67 -314 -68 -325 -2 -11 -9 -42 -15 -70 -6 -27 -14 -60 -16 -72 -2
-12 -15 -75 -29 -140 -14 -65 -33 -152 -41 -193 -9 -41 -18 -84 -21 -95 -2
-11 -6 -31 -9 -45 -3 -14 -7 -33 -10 -42 -3 -10 -8 -30 -10 -45 -3 -16 -9 -47
-15 -71 -5 -23 -12 -59 -15 -80 -3 -20 -8 -40 -10 -43 -2 -3 -6 -21 -9 -40 -5
-30 -15 -73 -31 -144 -3 -11 -7 -31 -10 -45 -2 -14 -11 -54 -19 -90 -8 -36
-17 -81 -20 -100 -3 -19 -10 -48 -15 -65 -5 -16 -12 -45 -15 -64 -3 -19 -19
-98 -36 -175 -17 -78 -34 -161 -39 -186 -15 -74 -19 -91 -24 -108 -3 -9 -8
-30 -10 -47 -3 -16 -17 -84 -31 -150 -112 -522 -147 -683 -151 -705 -2 -14 -8
-43 -14 -65 -11 -46 -50 -228 -56 -265 -4 -21 -8 -43 -20 -95 -4 -18 -35 -160
-39 -180 -5 -22 -23 -109 -29 -140 -2 -11 -19 -85 -36 -165 -35 -156 -37 -169
-46 -215 -3 -16 -14 -70 -25 -119 -11 -49 -18 -91 -15 -93 9 -9 1398 -5 1406
4 5 4 11 22 13 38 3 17 17 83 31 148 14 65 28 131 31 145 3 15 7 36 9 47 3 11
14 63 25 115 11 52 52 243 91 424 38 180 72 338 74 350 4 18 40 189 68 316 5
25 11 56 14 69 3 12 11 51 19 85 8 33 16 72 19 86 2 14 14 70 26 125 11 55 32
152 45 215 13 63 38 178 55 255 17 77 33 151 35 165 3 14 7 34 9 45 8 39 47
220 51 235 1 8 10 51 20 95 9 44 27 130 40 192 26 120 32 148 40 191 3 15 8
35 11 44 3 10 8 30 10 45 3 16 16 80 30 143 14 63 33 156 44 205 10 50 37 178
60 285 23 107 43 202 45 210 2 8 8 35 14 60 5 25 13 61 16 80 3 19 13 64 21
100 8 35 22 98 30 140 8 41 31 145 49 230 19 85 45 211 60 280 55 262 116 547
130 605 8 33 16 74 19 90 3 17 8 41 11 55 3 14 7 39 11 55 l5 30 -705 0 -705
0 -10 -40z"/>
<path d="M3177 5445 c-1 -1 -40 -5 -87 -9 -159 -11 -297 -49 -450 -123 -159
-76 -285 -167 -422 -304 -32 -31 -58 -54 -58 -50 0 6 16 80 54 256 14 60 23
111 21 113 -5 5 -1445 5 -1450 0 -2 -3 -100 -455 -111 -518 -3 -14 -7 -33 -10
-42 -3 -10 -7 -28 -9 -40 -7 -39 -122 -584 -160 -758 -20 -91 -52 -241 -71
-335 -20 -93 -38 -179 -40 -190 -3 -11 -7 -31 -10 -45 -3 -14 -18 -86 -34
-160 -16 -74 -31 -146 -34 -160 -2 -14 -9 -45 -15 -70 -5 -25 -12 -56 -15 -70
-12 -62 -55 -269 -65 -310 -5 -25 -19 -88 -30 -140 -52 -246 -101 -478 -106
-502 -13 -69 -16 -84 -21 -100 -3 -10 -7 -28 -10 -40 -2 -13 -13 -63 -23 -113
-11 -49 -17 -92 -15 -94 7 -7 1474 -7 1485 0 5 3 12 16 15 30 10 49 25 125 30
149 3 14 19 86 35 160 16 74 32 149 35 165 3 17 9 46 14 65 5 19 11 49 14 65
2 17 46 224 96 460 50 237 94 441 96 455 7 36 82 391 90 425 1 6 10 44 18 85
54 250 130 372 286 454 86 45 161 64 251 61 121 -3 183 -46 214 -148 19 -61
18 -181 -1 -272 -7 -34 -15 -73 -18 -86 -2 -13 -14 -67 -25 -119 -12 -52 -24
-111 -27 -130 -3 -19 -8 -38 -10 -41 -2 -3 -5 -19 -8 -35 -10 -54 -119 -570
-241 -1139 -28 -130 -35 -164 -39 -185 -3 -14 -12 -59 -21 -100 -16 -72 -19
-86 -30 -140 -3 -14 -12 -58 -21 -98 -9 -40 -13 -76 -10 -80 4 -3 340 -6 748
-6 l742 0 62 299 c35 165 65 311 68 325 2 14 27 133 55 265 29 132 54 256 57
275 3 19 9 51 14 70 5 19 19 82 30 140 11 58 25 121 30 140 5 19 11 49 13 65
3 17 28 138 56 270 28 132 54 254 57 270 3 17 10 50 15 75 6 25 12 54 14 65
13 72 25 146 30 180 4 22 9 51 12 65 14 67 10 329 -8 440 -74 468 -344 756
-794 846 -38 8 -252 23 -258 19z"/>
</g>
</svg>
